<?xml version="1.0" standalone="no"?>
<!DOCTYPE svg PUBLIC "-//W3C//DTD SVG 20010904//EN"
 "http://www.w3.org/TR/2001/REC-SVG-20010904/DTD/svg10.dtd">
<svg version="1.0" xmlns="http://www.w3.org/2000/svg"
 width="9954.000000pt" height="9036.000000pt" viewBox="0 0 9954.000000 9036.000000"
 preserveAspectRatio="xMidYMid meet">

<g transform="translate(0.000000,9036.000000) scale(0.100000,-0.100000)"
fill="#000000" stroke="none">
<path d="M62736 77080 c-35 -420 -150 -723 -351 -926 -207 -210 -468 -306
-870 -321 -141 -5 -419 8 -495 24 -14 2 22 -21 79 -52 854 -462 1055 -1077
640 -1953 l-58 -123 71 76 c257 275 564 467 843 527 85 18 303 15 393 -5 256
-58 515 -215 782 -474 l128 -123 -64 142 c-205 458 -253 840 -144 1158 106
309 384 590 793 806 56 29 100 54 97 54 -3 0 -48 -11 -100 -24 -193 -49 -284
-60 -480 -60 -168 1 -194 3 -285 27 -116 31 -243 89 -329 151 -82 58 -219 204
-281 296 -128 193 -259 503 -343 815 l-19 70 -7 -85z"/>
<path d="M66837 75613 c-23 -445 -179 -797 -439 -994 -99 -74 -189 -120 -321
-164 -174 -57 -269 -69 -557 -70 -140 0 -282 3 -315 7 l-60 7 105 -40 c318
-121 555 -284 679 -468 225 -331 222 -721 -12 -1452 l-34 -106 156 158 c247
249 434 368 667 426 108 26 315 23 429 -6 247 -64 488 -213 773 -477 56 -53
102 -90 102 -83 0 33 -59 268 -116 462 -113 382 -140 522 -132 693 4 94 8 110
41 178 59 118 129 177 438 365 75 46 168 110 208 143 105 86 208 225 185 248
-24 24 -220 34 -402 21 -443 -32 -559 -26 -682 35 -172 87 -291 287 -401 677
-67 239 -121 421 -132 445 -9 20 -113 90 -160 108 -11 4 -15 -17 -20 -113z"/>
<path d="M63050 73608 c-1 -89 -25 -300 -45 -405 -100 -500 -394 -802 -878
-903 -158 -33 -314 -43 -552 -36 -121 3 -233 9 -250 12 -16 3 40 -30 125 -73
85 -43 195 -105 244 -138 543 -358 693 -826 480 -1487 -35 -108 -109 -289
-154 -378 -20 -39 -8 -30 90 73 238 248 470 400 719 468 109 30 334 37 456 15
253 -47 536 -194 819 -423 60 -48 120 -96 133 -106 17 -14 10 3 -26 60 -111
179 -197 374 -239 542 -35 143 -37 353 -3 476 93 346 401 642 951 919 l146 73
-96 7 c-52 3 -272 6 -488 6 -216 0 -436 5 -488 11 -215 24 -373 88 -466 187
-92 99 -141 210 -227 505 -28 97 -67 223 -87 279 -35 103 -119 285 -148 323
-15 20 -15 19 -16 -7z"/>
<path d="M66456 70750 c-11 -102 -53 -287 -87 -391 -155 -466 -448 -729 -897
-806 -132 -22 -426 -22 -587 1 -66 9 -128 19 -137 22 -30 9 -21 -9 42 -83 85
-100 204 -195 444 -356 369 -246 437 -345 423 -612 -9 -159 -41 -289 -154
-624 -58 -172 -112 -334 -119 -358 l-14 -45 98 94 c175 168 353 289 542 371
245 105 529 115 784 27 236 -81 489 -243 721 -461 93 -88 97 -91 73 -49 -329
570 -372 1010 -138 1400 136 226 362 431 694 627 50 29 87 53 83 53 -3 0 -44
-9 -89 -19 -377 -87 -694 -74 -936 40 -335 156 -554 494 -700 1079 l-39 155
-7 -65z"/>
<path d="M51573 69845 c-916 -104 -1668 -537 -2123 -1222 -220 -330 -350 -678
-401 -1068 -15 -119 -15 -416 0 -535 73 -552 312 -1025 719 -1421 382 -373
909 -670 1417 -799 271 -69 438 -90 716 -90 282 0 488 25 755 90 422 104 911
328 1219 560 507 381 805 882 914 1535 43 256 62 607 41 765 -48 373 -236 794
-506 1130 -87 109 -295 317 -404 404 -417 333 -934 550 -1520 637 -179 27
-645 35 -827 14z"/>
<path d="M62579 69256 c-74 -26 -148 -98 -307 -297 -55 -70 -128 -151 -162
-180 -33 -30 -221 -214 -418 -410 -589 -586 -1085 -1031 -1675 -1501 -2931
-2335 -6199 -3474 -9822 -3425 -459 7 -647 14 -1105 47 -553 40 -955 48 -1365
30 -1117 -50 -2051 -277 -2886 -701 -703 -357 -1289 -825 -1851 -1480 -600
-699 -1045 -1398 -1358 -2133 -65 -154 -140 -349 -136 -353 4 -5 229 102 841
397 904 437 1221 581 1852 844 1058 440 1652 620 2323 702 204 24 672 30 825
10 201 -26 352 -75 493 -158 77 -45 228 -198 275 -278 204 -353 193 -906 -37
-1770 -232 -870 -465 -1515 -1163 -3220 -991 -2419 -1682 -3973 -2469 -5550
-246 -494 -289 -586 -338 -732 -112 -336 -280 -686 -491 -1023 -41 -66 -104
-196 -183 -380 -309 -722 -594 -1323 -1372 -2890 -216 -434 -448 -907 -517
-1050 -279 -580 -410 -835 -579 -1130 -292 -511 -455 -850 -534 -1115 -17 -57
-32 -86 -64 -120 -82 -88 -164 -223 -220 -363 -33 -81 -109 -337 -103 -343 7
-7 267 188 322 241 101 98 163 210 189 345 3 15 112 141 262 305 373 406 523
576 874 990 2420 2851 4134 4771 5884 6590 351 364 1547 1561 1881 1881 694
665 1387 1305 1865 1724 914 800 1672 1331 2454 1721 455 226 699 302 971 302
153 -1 241 -20 370 -84 106 -52 192 -118 270 -209 225 -261 406 -758 455
-1249 13 -132 13 -493 0 -636 -54 -592 -272 -1486 -594 -2442 -440 -1302
-1063 -2655 -2078 -4507 -87 -159 -158 -295 -158 -302 0 -42 26 -120 46 -141
32 -32 71 -29 159 11 41 19 89 37 107 41 42 10 242 200 547 520 369 388 560
604 1191 1340 216 253 480 559 586 680 195 223 315 382 765 1020 579 818 1135
1642 1633 2419 304 472 394 625 481 806 48 102 184 378 303 615 444 889 657
1384 868 2020 187 563 314 1107 359 1528 17 169 20 483 5 625 -94 870 -602
1380 -1505 1508 -161 23 -632 26 -820 6 -900 -99 -1800 -343 -2830 -767 -426
-176 -518 -199 -609 -156 -94 46 -121 163 -113 481 7 300 52 507 167 777 252
589 905 1372 1800 2157 374 329 608 519 2126 1726 1219 969 1787 1462 2454
2130 354 353 563 579 786 846 752 901 1165 1757 1303 2694 11 74 33 214 50
310 16 96 32 216 36 265 16 216 -53 374 -189 436 -48 22 -77 23 -127 5z"/>
<path d="M27240 26681 c-114 -7 -142 -22 -173 -89 l-22 -47 0 -5480 c0 -5099
1 -5483 17 -5517 22 -49 59 -66 170 -78 122 -13 1594 -13 1717 0 105 11 135
23 165 63 l21 28 5 1917 5 1917 25 50 c14 27 40 60 58 72 62 41 114 44 629 41
538 -4 525 -3 619 -70 45 -32 356 -444 2108 -2793 574 -770 859 -1133 920
-1172 19 -12 60 -30 92 -40 55 -17 128 -18 1204 -18 630 0 1167 4 1193 8 43 7
50 13 63 42 10 24 11 41 4 59 -25 67 -228 348 -750 1041 -315 418 -711 945
-881 1170 -169 226 -372 493 -450 595 -275 361 -803 1084 -838 1148 -14 26 -1
89 27 120 21 25 124 66 301 122 286 89 669 284 948 482 316 225 670 595 900
941 323 487 518 1111 578 1852 7 87 -8 227 -71 643 -39 259 -69 389 -144 613
-241 722 -661 1295 -1265 1726 -275 196 -645 383 -975 493 -272 91 -493 133
-773 149 -188 11 -5267 22 -5427 12z m669 -446 c35 -17 61 -78 61 -140 0 -63
-38 -105 -101 -112 -38 -4 -50 -1 -77 22 -63 53 -75 102 -42 169 33 69 97 93
159 61z m2360 0 c34 -17 41 -33 41 -89 0 -38 -19 -81 -44 -98 -19 -13 -86 -9
-116 7 -41 21 -60 53 -60 103 0 62 32 92 100 92 28 0 64 -7 79 -15z m1523 -72
c27 -24 22 -40 -23 -69 -39 -24 -42 -25 -60 -8 -23 21 -24 42 -3 72 18 26 60
29 86 5z m771 -8 c50 -34 59 -71 24 -101 -32 -27 -106 -41 -135 -25 -21 11
-37 62 -30 98 3 18 61 53 88 53 9 0 32 -11 53 -25z m-1599 -21 c8 -20 -11 -54
-29 -54 -15 0 -20 26 -9 54 8 21 30 21 38 0z m-1550 -29 c4 -10 -1 -15 -14
-15 -11 0 -20 7 -20 15 0 8 6 15 14 15 8 0 16 -7 20 -15z m-1095 -289 c14 -15
25 -42 28 -68 4 -36 1 -46 -19 -64 -12 -12 -38 -24 -56 -28 -27 -5 -38 -1 -58
19 -32 32 -34 115 -4 145 28 28 81 26 109 -4z m3093 -36 c28 -39 34 -91 11
-118 -36 -46 -130 -45 -165 0 -29 38 -23 76 18 115 31 29 43 34 77 31 29 -2
45 -10 59 -28z m-3887 12 c6 -4 19 -24 30 -46 l19 -38 -29 -24 c-37 -30 -59
-30 -79 -2 -23 32 -20 65 9 93 26 26 34 29 50 17z m2270 -17 c29 -28 31 -51 9
-83 -20 -29 -48 -28 -73 4 -25 32 -27 67 -5 88 22 22 41 20 69 -9z m838 9 c38
-20 47 -31 47 -62 0 -59 -71 -109 -130 -92 -81 23 -91 77 -27 148 24 26 65 29
110 6z m2251 -17 c33 -43 33 -50 -5 -81 -38 -33 -52 -33 -78 0 -26 33 -26 41
-1 82 25 41 52 41 84 -1z m-720 13 c36 -13 32 -34 -10 -67 -35 -26 -37 -26
-50 -8 -20 27 -17 52 8 69 27 19 21 18 52 6z m1586 -22 c11 -12 20 -30 20 -40
0 -26 -36 -58 -65 -58 -29 0 -65 32 -65 58 0 56 70 82 110 40z m689 -47 c-15
-5 -22 6 -14 19 6 9 10 9 16 -1 5 -8 4 -15 -2 -18z m-4205 -321 c39 -44 46
-78 19 -102 -29 -25 -59 -30 -96 -14 -41 17 -57 42 -57 90 0 43 22 66 65 66
26 0 40 -9 69 -40z m2313 11 c45 -21 58 -45 44 -83 -12 -32 -57 -68 -85 -68
-43 1 -86 57 -86 112 0 59 48 74 127 39z m808 -22 c33 -41 29 -59 -21 -86 -40
-22 -40 -22 -72 -3 -40 25 -41 52 -3 91 38 37 63 37 96 -2z m781 -8 c27 -42
26 -69 -4 -103 -21 -25 -45 -22 -76 8 -32 33 -35 85 -6 114 31 31 56 25 86
-19z m-4693 -1 c36 -43 42 -68 21 -91 -24 -26 -59 -24 -100 7 -26 20 -34 34
-34 58 0 41 16 56 56 56 24 0 39 -8 57 -30z m-1499 -2 c21 -29 20 -51 -1 -70
-32 -28 -60 -31 -82 -9 -27 27 -27 55 1 81 29 26 63 26 82 -2z m3068 5 c20
-24 9 -67 -18 -71 -11 -2 -28 6 -39 18 -18 20 -18 21 5 45 28 30 32 30 52 8z
m726 -25 c17 -17 15 -45 -5 -52 -18 -7 -33 9 -33 35 0 29 18 37 38 17z m-2683
-318 c47 -18 45 -71 -5 -121 -36 -36 -77 -38 -114 -4 -35 32 -34 69 3 106 31
31 68 37 116 19z m2338 -32 c25 -29 22 -83 -5 -102 -34 -24 -57 -19 -95 19
-46 46 -44 85 7 102 42 14 69 8 93 -19z m2325 16 c36 -25 45 -60 26 -100 -9
-19 -26 -40 -38 -46 -29 -16 -86 -11 -107 8 -23 20 -39 76 -32 104 12 45 106
66 151 34z m-3844 -26 c33 -46 11 -88 -45 -88 -47 0 -79 66 -47 98 21 21 75
15 92 -10z m3096 2 c11 -11 20 -31 20 -45 0 -30 -32 -65 -59 -65 -25 0 -61 45
-61 76 0 25 34 54 62 54 10 0 27 -9 38 -20z m-5490 -40 c0 -11 -7 -20 -15 -20
-15 0 -21 21 -8 33 12 13 23 7 23 -13z m7399 -316 c26 -10 43 -25 51 -44 10
-25 9 -35 -12 -72 -37 -68 -94 -76 -157 -22 -40 34 -43 88 -6 128 28 30 65 34
124 10z m-6175 -40 l28 -36 -28 -29 c-38 -39 -67 -38 -94 6 -21 35 -20 44 8
78 24 27 54 21 86 -19z m3864 -42 c420 -81 726 -291 982 -674 149 -224 179
-335 187 -693 6 -264 -3 -347 -53 -506 -152 -484 -655 -906 -1129 -948 -180
-16 -1171 -22 -2255 -13 -921 7 -1018 9 -1046 25 -53 28 -81 70 -93 140 -15
88 -15 2475 0 2532 11 41 51 90 104 128 20 15 52 24 95 28 36 4 747 5 1580 4
1510 -1 1515 -2 1628 -23z m-4238 -337 c23 -25 23 -25 5 -65 -15 -32 -23 -40
-45 -40 -21 0 -34 10 -54 40 -32 48 -32 55 -4 74 33 23 71 20 98 -9z m5416 0
c19 -19 23 -31 18 -48 -10 -34 -24 -47 -52 -47 -53 0 -78 52 -46 98 20 29 49
28 80 -3z m735 15 c41 -22 6 -80 -48 -80 -28 0 -31 34 -7 68 17 25 27 27 55
12z m-6929 -17 c22 -20 23 -51 1 -75 -22 -25 -59 -23 -77 4 -20 29 -20 47 1
70 20 22 51 23 75 1z m7722 -14 c30 -23 33 -54 9 -81 -21 -24 -44 -23 -77 3
-33 26 -33 44 0 74 33 30 35 30 68 4z m-6599 -283 c52 -22 81 -102 59 -161
-17 -43 -141 -62 -184 -27 -17 13 -24 32 -28 71 -6 63 10 99 53 117 39 17 58
17 100 0z m-729 -101 c20 -31 15 -53 -18 -78 -23 -17 -32 -19 -52 -9 -14 6
-28 23 -32 38 -6 22 -2 32 20 51 35 30 61 29 82 -2z m6190 0 c22 -34 12 -69
-26 -85 -26 -11 -33 -10 -49 4 -31 28 -33 55 -6 82 31 31 60 30 81 -1z m-5827
-351 c39 -33 39 -50 -1 -91 -41 -43 -79 -44 -119 -4 -31 32 -35 50 -18 84 16
30 28 37 71 37 25 0 46 -8 67 -26z m6969 -2 c15 -10 7 -38 -14 -46 -22 -8 -44
4 -44 24 0 26 32 38 58 22z m-782 -57 c7 -19 14 -41 14 -49 0 -40 -92 -18
-105 25 -9 26 20 59 52 59 18 0 28 -9 39 -35z m403 -364 c25 -35 26 -39 4 -63
-32 -36 -113 -13 -113 33 0 16 52 56 77 58 6 1 21 -12 32 -28z m-392 -373 c32
-30 29 -62 -6 -87 -35 -25 -64 -27 -81 -5 -32 37 -2 114 43 114 12 0 31 -10
44 -22z m-6958 -2 c7 -8 11 -30 9 -48 -2 -25 -9 -35 -31 -42 -35 -13 -58 0
-72 39 -8 23 -6 30 14 46 28 23 64 25 80 5z m6586 -296 c41 -16 69 -103 49
-155 -9 -23 -57 -45 -98 -45 -50 0 -86 45 -86 109 0 53 17 76 66 91 39 11 39
11 69 0z m-6234 -82 c8 -7 23 -23 33 -36 19 -22 19 -23 -9 -52 -34 -35 -57
-38 -85 -10 -27 27 -25 56 5 85 27 28 35 30 56 13z m790 -10 c10 -19 8 -25
-17 -45 -35 -28 -68 -26 -72 4 -8 57 63 90 89 41z m5813 -369 c58 -69 21 -149
-69 -149 -36 0 -48 5 -69 31 -41 48 -32 104 22 133 46 25 87 20 116 -15z
m-766 -15 c32 -22 25 -53 -18 -82 l-35 -23 -22 28 c-29 35 -29 58 -1 77 28 20
48 20 76 0z m1551 -10 c26 -33 26 -49 1 -74 -26 -26 -43 -25 -76 3 -20 18 -25
29 -20 45 18 55 63 67 95 26z m-7427 -334 c42 -12 78 -55 78 -93 0 -16 -12
-33 -34 -51 -39 -29 -46 -30 -97 -16 -85 24 -93 170 -10 170 14 0 43 -5 63
-10z m7008 -35 c54 -28 78 -88 45 -115 -41 -34 -147 -33 -166 2 -20 38 31 128
73 128 11 0 32 -7 48 -15z m-5453 -41 c8 -20 -8 -36 -26 -25 -15 10 -8 41 9
41 6 0 13 -7 17 -16z m1552 2 c9 -10 7 -19 -7 -36 -20 -25 -42 -20 -42 9 0 17
18 41 31 41 4 0 12 -6 18 -14z m2407 -18 c5 -17 0 -28 -21 -45 -48 -42 -86
-10 -48 41 23 32 59 34 69 4z m-3137 -31 c19 -24 -10 -36 -39 -17 -13 9 -13
11 0 20 20 13 26 12 39 -3z m2699 -293 c29 -20 28 -41 -4 -98 -27 -49 -27 -49
-91 -25 -54 20 -49 84 9 119 40 24 57 25 86 4z m-5363 -38 c25 -37 29 -83 11
-111 -23 -35 -54 -39 -109 -16 -46 20 -47 21 -47 65 0 38 5 48 35 75 31 27 38
29 65 19 17 -6 38 -20 45 -32z m3055 29 c34 -18 47 -53 31 -84 -16 -29 -53
-36 -90 -17 -24 13 -31 23 -31 46 0 29 29 70 50 70 6 0 24 -7 40 -15z m-2370
-14 c13 -25 3 -51 -20 -51 -25 0 -33 16 -26 46 8 29 31 32 46 5z m3104 -7 c8
-22 -12 -56 -32 -52 -21 4 -28 34 -12 53 16 20 36 19 44 -1z m-2326 -27 c4
-20 -25 -34 -40 -19 -15 15 -1 44 19 40 10 -2 19 -11 21 -21z m775 1 c6 -18
-14 -58 -29 -58 -19 0 -27 18 -20 46 7 26 41 34 49 12z m2303 -15 c-10 -10
-19 5 -10 18 6 11 8 11 12 0 2 -7 1 -15 -2 -18z m-2649 -351 c25 -30 29 -53
13 -83 -14 -24 -61 -25 -88 -1 -16 13 -52 97 -52 120 0 3 24 2 53 -2 40 -5 57
-13 74 -34z m1532 -8 c34 -29 39 -58 15 -92 -32 -46 -144 -14 -144 42 0 13 9
35 21 50 27 34 68 34 108 0z m1570 -11 c17 -21 31 -41 31 -45 0 -13 -74 -58
-97 -58 -28 0 -73 48 -73 77 0 34 34 63 74 63 28 0 41 -7 65 -37z m-4263 -335
c33 -32 34 -35 23 -68 -23 -71 -78 -96 -140 -65 -40 21 -53 57 -35 99 30 72
95 86 152 34z m2326 11 c24 -13 31 -44 18 -83 -16 -50 -44 -70 -92 -69 -78 4
-108 49 -76 119 21 46 92 62 150 33z m2339 -12 c23 -18 40 -53 33 -71 -8 -20
-66 -56 -90 -56 -25 0 -64 39 -64 66 0 27 53 74 83 74 12 0 29 -6 38 -13z
m-3897 -29 c21 -29 20 -87 -1 -110 -38 -42 -143 1 -143 58 0 64 109 103 144
52z m2296 -16 c0 -14 -36 -43 -43 -35 -4 3 -7 15 -7 25 0 13 7 18 25 18 14 0
25 -4 25 -8z m-2711 -318 c47 -33 67 -136 36 -181 -21 -30 -74 -39 -113 -19
-97 50 -98 166 -2 205 36 14 53 13 79 -5z m-814 0 c22 -9 99 -124 89 -133 -18
-16 -95 -41 -124 -41 -61 0 -88 65 -55 130 22 43 53 58 90 44z m4753 -30 c29
-20 28 -41 -3 -87 -30 -43 -63 -49 -95 -15 -27 29 -25 50 6 87 29 34 58 39 92
15z m-1636 -31 c25 -23 23 -68 -4 -87 -30 -21 -44 -20 -68 4 -26 26 -25 54 2
80 26 24 45 25 70 3z m436 -340 c28 -17 42 -50 35 -85 -7 -39 -37 -60 -84 -62
-33 -1 -45 5 -65 27 -39 45 -30 125 16 140 22 7 71 -3 98 -20z m-3140 -23 c18
-11 38 -31 44 -45 16 -35 -16 -79 -60 -83 -37 -4 -102 48 -102 82 0 61 57 83
118 46z m757 -5 c37 -36 32 -51 -24 -80 -35 -18 -35 -17 -58 9 -29 34 -29 60
-1 80 32 22 55 20 83 -9z m3105 -49 c-7 -7 -14 -6 -22 2 -10 10 -10 15 2 22
17 11 34 -10 20 -24z m-3415 -349 l20 -38 -30 -25 c-36 -29 -61 -31 -75 -5
-15 28 -12 63 6 89 23 33 55 25 79 -21z m3107 16 c24 -21 23 -58 -2 -83 -26
-26 -43 -25 -77 4 l-28 24 18 36 c13 28 23 36 44 36 14 0 35 -7 45 -17z m-462
-427 c0 -11 -19 -15 -25 -6 -3 5 1 10 9 10 9 0 16 -2 16 -4z m1594 -50 c-3 -8
-12 -12 -21 -9 -12 5 -12 7 -1 14 20 13 28 11 22 -5z m-5424 -761 c15 -18 5
-35 -20 -35 -22 0 -34 15 -26 35 7 19 30 19 46 0z m5459 -701 c26 -33 27 -58
1 -84 -33 -33 -68 -36 -95 -9 -36 37 -41 72 -14 98 33 30 82 28 108 -5z m706
-44 c-10 -11 -24 -20 -32 -20 -7 0 -13 9 -13 20 0 16 7 20 32 20 30 0 31 0 13
-20z m-327 -352 c28 -28 0 -88 -43 -88 -28 0 -45 18 -45 50 0 14 5 31 12 38 7
7 24 12 38 12 14 0 31 -5 38 -12z m-5491 -29 c14 -14 5 -49 -13 -49 -18 0 -28
24 -20 45 6 18 18 19 33 4z m6271 -731 c15 -15 16 -53 2 -79 -20 -37 -100 -13
-100 30 0 48 66 81 98 49z"/>
<path d="M52670 26680 c-1345 -4 -1753 -8 -1781 -18 -49 -17 -68 -40 -81 -103
-9 -40 -12 -1465 -15 -5441 -4 -5869 -7 -5549 50 -5606 14 -13 44 -29 68 -34
62 -13 8098 -22 8272 -9 151 11 167 19 210 101 30 58 34 106 17 223 -8 52 -6
88 5 154 19 111 19 267 -1 435 -14 113 -15 206 -9 625 5 362 4 497 -5 512 -6
12 -23 27 -38 34 -21 9 -747 13 -3142 17 -2819 5 -3120 7 -3168 21 -60 19 -95
47 -125 104 l-22 40 0 1075 c0 1057 0 1076 20 1109 31 52 63 70 155 86 73 13
348 15 2010 15 2130 1 2268 4 2317 52 17 17 27 43 34 84 14 88 22 1310 11
1599 -11 282 -18 316 -74 339 -19 8 -94 17 -173 21 -77 4 -1044 10 -2150 14
-1926 6 -2012 7 -2048 25 -46 23 -82 65 -99 114 -17 54 -25 1911 -8 2068 20
189 49 218 231 234 75 6 1113 8 3044 4 2894 -6 3148 -4 3203 25 11 6 23 23 27
38 4 16 8 271 10 568 3 430 1 576 -12 715 -17 193 -12 389 12 525 27 147 19
185 -43 213 -34 16 -164 18 -1497 23 -1628 7 -2646 7 -5205 -1z m4910 -158
c47 -23 52 -55 10 -77 -38 -20 -63 -13 -78 21 -16 33 -15 40 4 58 19 19 20 19
64 -2z m-730 -33 c0 -14 -30 -23 -41 -12 -5 5 -7 17 -3 26 5 13 10 14 25 6 10
-5 19 -14 19 -20z m-790 12 c0 -6 -4 -13 -10 -16 -5 -3 -10 1 -10 9 0 9 5 16
10 16 6 0 10 -4 10 -9z m1973 -272 c46 -21 72 -107 51 -164 -10 -25 -59 -45
-112 -45 -68 0 -94 29 -100 111 -4 52 -2 63 19 85 18 19 33 24 70 24 27 0 59
-5 72 -11z m-5455 -61 c7 -7 12 -24 12 -38 0 -31 -17 -50 -44 -50 -46 0 -76
67 -38 89 23 14 55 14 70 -1z m4617 4 c6 -4 19 -20 29 -36 l18 -29 -31 -31
c-30 -30 -32 -30 -59 -16 -36 20 -42 70 -13 99 22 22 39 26 56 13z m1612 -2
c63 -22 68 -95 10 -130 -39 -24 -60 -25 -98 -3 -21 13 -29 25 -29 46 0 49 19
71 86 97 1 0 15 -5 31 -10z m-7025 -17 c28 -32 31 -60 9 -82 -40 -40 -100 -17
-88 32 7 24 42 67 56 67 4 0 15 -8 23 -17z m2288 2 c0 -9 -6 -12 -16 -8 -13 5
-13 7 -2 14 17 11 18 11 18 -6z m1604 -1 c31 -30 14 -84 -26 -84 -41 0 -80 80
-45 93 25 11 56 7 71 -9z m758 -1 c22 -20 23 -61 1 -85 -19 -21 -33 -22 -67
-6 -34 15 -41 40 -21 78 18 35 57 41 87 13z m-1526 -38 c15 -23 15 -27 0 -51
-23 -34 -41 -39 -71 -20 -32 21 -32 49 1 75 35 27 50 26 70 -4z m-2673 -255
c32 -25 41 -66 27 -119 -16 -62 -48 -92 -100 -98 -90 -9 -136 52 -111 145 23
82 121 121 184 72z m6212 -15 c49 -48 24 -161 -45 -197 -79 -41 -150 -7 -150
72 0 70 30 112 97 136 54 19 71 17 98 -11z m-3135 -20 c6 -8 14 -32 17 -54 5
-35 2 -44 -25 -71 -32 -32 -69 -38 -116 -20 -20 7 -26 16 -26 40 0 39 34 107
57 113 38 10 81 6 93 -8z m-751 -41 c25 -21 31 -33 31 -65 0 -55 -26 -79 -88
-79 -59 0 -81 20 -89 78 -5 34 -1 45 20 66 35 35 85 35 126 0z m2292 -5 c8
-17 7 -31 -6 -65 -27 -72 -74 -82 -109 -23 -23 38 -15 74 22 93 40 22 79 20
93 -5z m-5443 -11 c28 -28 7 -84 -28 -73 -21 7 -53 62 -44 77 8 12 59 9 72 -4z
m2324 -5 c24 -21 23 -54 -2 -81 -25 -27 -50 -28 -80 -4 -18 14 -21 25 -16 45
13 54 61 74 98 40z m455 -319 c22 -22 25 -32 20 -72 -7 -66 -49 -102 -117
-102 -42 0 -52 4 -66 25 -21 32 -14 107 12 137 41 45 112 51 151 12z m-1624
-45 c28 -13 49 -51 41 -74 -7 -18 -65 -55 -86 -55 -26 0 -68 40 -68 65 0 24
51 75 75 75 8 0 25 -5 38 -11z m4671 -8 c12 -13 16 -27 11 -43 -17 -54 -51
-63 -90 -24 -22 22 -23 28 -14 55 9 26 16 31 43 31 20 0 40 -8 50 -19z m-3891
-24 c22 -29 23 -36 13 -67 -7 -24 -18 -36 -33 -38 -33 -5 -82 25 -89 55 -6 22
-1 32 25 55 40 36 53 35 84 -5z m4720 17 c18 -9 33 -18 35 -19 11 -10 -16 -59
-44 -80 -33 -25 -36 -26 -59 -11 -32 21 -34 77 -5 106 24 24 32 25 73 4z
m-1574 -25 c37 -37 39 -65 6 -101 -31 -35 -42 -35 -93 3 -49 36 -52 56 -16 98
33 40 64 40 103 0z m-2810 -280 c102 -22 132 -92 65 -155 -78 -74 -131 -23
-133 129 -1 41 -1 41 68 26z m-1482 -26 c45 -30 35 -109 -19 -147 -32 -23 -61
-20 -87 8 -36 38 -32 88 9 131 36 37 51 38 97 8z m-797 -58 c47 -24 39 -60
-18 -89 -32 -17 -34 -17 -48 1 -37 47 -38 56 -10 80 32 27 38 28 76 8z m3112
-8 c14 -21 3 -77 -15 -77 -14 0 -77 49 -77 60 0 5 7 16 16 25 18 18 63 13 76
-8z m1541 -8 l19 -27 -23 -31 c-28 -38 -60 -40 -88 -5 -28 35 -26 48 6 74 33
26 60 23 86 -11z m-3091 4 c24 -22 23 -46 -5 -79 -19 -22 -29 -26 -50 -20 -39
9 -62 48 -46 78 7 13 17 26 23 30 19 13 59 9 78 -9z m-1199 -367 c7 -18 -1
-26 -25 -26 -20 0 -25 26 -5 33 20 9 25 8 30 -7z m821 -52 c9 -23 8 -24 -14
-24 -19 0 -27 20 -13 33 11 11 20 8 27 -9z m-1186 -350 c28 -19 28 -53 2 -82
-52 -56 -126 10 -90 79 13 23 57 25 88 3z m777 -9 c30 -29 31 -49 5 -75 -37
-37 -85 -19 -96 37 -5 27 -2 33 22 47 38 20 41 20 69 -9z m-378 -353 c38 -24
34 -100 -6 -121 -54 -29 -111 3 -111 64 0 27 6 37 28 49 29 17 70 20 89 8z
m687 -57 c3 -9 0 -15 -9 -15 -9 0 -12 6 -9 15 4 8 7 15 9 15 2 0 5 -7 9 -15z
m-248 -259 c30 -30 34 -40 34 -87 0 -75 -25 -121 -74 -137 -101 -33 -196 37
-196 145 0 73 52 112 149 113 47 0 57 -4 87 -34z m-826 -108 c27 -44 26 -49
-15 -77 -33 -22 -36 -23 -60 -7 -29 19 -33 60 -9 94 23 33 60 29 84 -10z m448
-348 c28 -18 32 -25 32 -65 0 -63 -26 -123 -63 -141 -40 -21 -108 -11 -147 22
-25 21 -30 33 -30 69 0 54 12 87 41 114 31 29 120 29 167 1z m696 -39 c34 -36
32 -71 -6 -88 -34 -17 -51 -9 -74 33 l-19 35 28 25 c35 30 37 30 71 -5z
m-1131 -413 c8 -12 8 -24 -1 -42 -9 -21 -19 -26 -46 -26 -47 0 -53 14 -21 56
28 37 51 41 68 12z m375 -344 c28 -19 29 -57 2 -84 -24 -24 -48 -25 -78 -4
-43 30 -16 104 38 104 9 0 26 -7 38 -16z m760 -17 c19 -33 19 -33 -2 -60 -25
-31 -56 -35 -78 -9 -28 32 -29 52 -3 78 33 33 59 31 83 -9z m-1521 -23 c1 -5
-2 -16 -7 -24 -9 -13 -11 -13 -19 -1 -5 8 -7 20 -4 28 6 15 25 13 30 -3z m362
-360 c25 -32 26 -51 4 -76 -20 -22 -46 -23 -78 -2 -33 22 -32 57 3 83 36 27
47 26 71 -5z m779 10 c12 -8 22 -26 22 -40 0 -19 -10 -29 -44 -46 -53 -25 -76
-15 -76 35 0 58 50 85 98 51z m1559 -58 c-8 -21 -45 -20 -69 1 -22 20 -23 31
-1 55 16 18 18 18 46 -11 19 -18 28 -35 24 -45z m2354 45 c41 -42 39 -78 -6
-97 -44 -18 -69 -18 -105 1 -45 23 -42 66 7 100 48 32 68 32 104 -4z m-3121
-22 c15 -27 5 -66 -21 -79 -16 -9 -26 -8 -45 5 -33 21 -30 64 6 82 35 18 48
16 60 -8z m2310 7 c30 -37 -17 -94 -64 -77 -28 11 -31 34 -10 65 18 29 55 34
74 12z m-757 -15 c3 -13 -1 -21 -14 -24 -15 -4 -19 0 -19 19 0 29 25 33 33 5z
m-368 -245 c44 -19 65 -61 65 -130 0 -48 -3 -57 -31 -80 -25 -22 -41 -26 -90
-26 -78 0 -118 32 -126 101 -8 72 26 124 90 139 48 12 54 11 92 -4z m-3102
-67 c29 -16 37 -28 37 -61 0 -33 -36 -63 -87 -73 -31 -6 -40 -3 -55 15 -31 39
-23 72 25 102 48 32 51 32 80 17z m4667 -4 c50 -26 51 -78 3 -135 -35 -42 -89
-42 -132 1 -41 40 -41 80 -2 120 34 33 83 39 131 14z m-3156 -36 c14 -17 26
-34 26 -38 0 -4 -13 -20 -29 -35 -23 -22 -36 -27 -55 -22 -53 13 -59 83 -8
110 36 20 37 20 66 -15z m775 1 c21 -29 21 -31 4 -55 -24 -34 -59 -42 -83 -20
-28 25 -25 60 6 84 35 28 46 27 73 -9z m3074 9 c43 -23 50 -66 17 -99 -26 -26
-50 -25 -78 0 -29 27 -29 74 0 94 27 19 33 19 61 5z m-4621 -16 c21 -19 24
-56 5 -71 -28 -23 -65 -24 -87 -2 -50 50 29 121 82 73z m3058 -78 c0 -9 -6
-12 -16 -8 -13 5 -13 7 -2 14 17 11 18 11 18 -6z m-3389 -214 c34 -35 39 -83
12 -138 -66 -140 -288 -60 -244 88 17 56 57 79 139 79 57 0 67 -3 93 -29z
m4640 -51 c24 -13 49 -61 49 -94 0 -34 -43 -66 -91 -66 -55 0 -90 33 -96 91
-5 40 -2 48 18 63 26 18 90 21 120 6z m-2388 -22 c12 -6 39 -25 60 -41 32 -26
37 -36 37 -70 0 -70 -48 -94 -129 -66 -61 21 -83 118 -36 164 27 28 37 30 68
13z m796 -2 c7 -8 11 -30 9 -48 -2 -26 -8 -34 -26 -36 -13 -2 -32 4 -43 14
-18 17 -26 64 -12 77 12 12 60 7 72 -7z m2327 -10 c3 -8 -2 -29 -11 -46 l-17
-32 -24 23 c-23 22 -31 49 -17 62 12 13 64 7 69 -7z m-5050 -367 c41 -25 43
-50 9 -102 -29 -42 -51 -46 -89 -16 -35 28 -36 80 -1 114 29 30 38 31 81 4z
m1554 -9 c11 -11 20 -28 20 -39 0 -48 -71 -52 -92 -5 -11 23 -9 29 11 45 29
24 36 24 61 -1z m-731 -25 c42 -36 48 -61 20 -91 -28 -30 -71 -31 -110 -3 -36
26 -37 55 -2 91 33 35 53 35 92 3z m1516 -65 c-20 -22 -55 -26 -73 -8 -20 20
-14 36 26 63 l37 25 14 -30 c13 -27 13 -32 -4 -50z m785 65 c10 -12 10 -21 2
-40 -14 -30 -28 -32 -42 -5 -8 14 -8 26 0 40 13 24 23 25 40 5z m-2715 -263
c17 -10 42 -41 57 -69 27 -49 27 -52 13 -99 -21 -71 -102 -144 -159 -144 -22
0 -41 12 -77 49 -53 55 -68 100 -50 153 11 34 67 95 106 116 30 17 76 14 110
-6z m-726 -128 c28 -36 29 -106 1 -134 -60 -60 -170 -18 -170 65 0 55 44 95
104 95 36 0 48 -5 65 -26z m5365 -29 c-4 -8 -10 -12 -15 -9 -14 8 -10 24 6 24
9 0 12 -6 9 -15z m-3894 -36 c0 -4 -6 -12 -14 -18 -22 -18 -46 -2 -46 31 l0
29 30 -18 c17 -9 30 -20 30 -24z m-1127 -352 c29 -48 29 -50 14 -83 -14 -29
-22 -34 -53 -34 -28 0 -44 8 -70 34 -36 36 -42 63 -23 99 17 31 29 38 68 35
29 -3 39 -10 64 -51z m3 -710 c23 -20 28 -34 32 -84 4 -56 2 -61 -23 -81 -70
-56 -165 4 -165 104 0 57 28 80 102 83 15 0 39 -9 54 -22z m-341 -330 c55 -47
50 -161 -8 -198 -44 -28 -127 -22 -162 11 -43 40 -32 136 21 185 37 34 111 35
149 2z m680 -158 c10 -15 -1 -23 -20 -15 -9 3 -13 10 -10 16 8 13 22 13 30 -1z
m-307 -304 c21 -23 32 -45 32 -65 0 -26 -7 -33 -61 -61 l-62 -31 -43 49 c-60
66 -58 92 6 132 46 29 86 21 128 -24z m-813 -44 c-3 -12 -10 -21 -15 -21 -14
0 -21 32 -9 47 16 19 33 1 24 -26z m1184 -317 c25 -18 60 -87 61 -117 0 -11
-15 -34 -34 -53 -28 -28 -42 -34 -76 -34 -23 0 -50 5 -60 10 -28 15 -70 92
-70 127 0 29 28 64 60 76 31 11 96 6 119 -9z m-815 -10 c9 -8 16 -28 16 -44 0
-38 -24 -60 -65 -60 -38 0 -55 20 -55 64 0 46 71 74 104 40z m384 -390 c32
-22 30 -76 -4 -103 -34 -27 -50 -26 -79 4 -30 30 -31 54 -4 89 23 29 54 33 87
10z m822 -36 c34 -47 37 -64 14 -96 -20 -29 -71 -29 -115 1 -67 45 -42 137 38
137 27 0 38 -7 63 -42z m-416 -259 c59 -16 86 -49 86 -103 0 -88 -36 -136
-100 -136 -87 0 -130 44 -130 133 0 51 4 62 29 88 32 31 54 35 115 18z m3127
-108 c38 -38 39 -82 3 -110 -32 -25 -46 -26 -89 -6 -54 26 -70 83 -33 122 31
34 82 31 119 -6z m-773 -7 c55 -38 52 -82 -8 -109 l-40 -18 -40 27 c-47 31
-50 53 -14 90 30 30 69 34 102 10z m2297 -4 c17 -19 17 -22 1 -65 -14 -36 -22
-45 -42 -45 -34 0 -74 42 -67 69 7 26 49 61 73 61 9 0 25 -9 35 -20z m820 -16
c10 -10 15 -29 13 -48 -3 -27 -7 -31 -36 -34 -40 -4 -62 12 -62 44 0 47 52 70
85 38z m-4735 -49 c16 -19 4 -35 -25 -35 -13 0 -27 5 -30 10 -8 13 13 40 30
40 7 0 18 -7 25 -15z m4331 -248 c19 -14 44 -61 53 -100 8 -36 -30 -77 -91
-96 l-43 -14 -39 44 c-22 24 -40 52 -41 61 0 35 92 118 130 118 8 -1 22 -6 31
-13z m-3888 -49 c33 -13 57 -54 57 -97 0 -72 -46 -111 -132 -111 -45 0 -59 4
-77 24 -49 53 -32 172 27 195 29 11 81 6 125 -11z m1555 -8 c35 -25 42 -36 42
-63 0 -29 -5 -36 -45 -55 -42 -20 -48 -21 -75 -7 -50 26 -66 87 -34 133 21 31
63 28 112 -8z m751 4 c29 -37 27 -78 -5 -103 -49 -38 -105 -17 -120 45 -6 23
-1 32 25 56 40 35 73 36 100 2z m-1560 -10 c12 -15 21 -34 21 -44 0 -26 -39
-70 -61 -70 -28 0 -57 17 -70 41 -9 17 -6 28 15 60 32 47 65 52 95 13z m2321
-4 c55 -55 -24 -136 -82 -83 -24 21 -24 78 0 92 27 16 60 13 82 -9z m1565 -20
c20 -40 19 -56 -7 -74 -29 -20 -57 -20 -79 0 -20 18 -14 40 24 82 27 30 43 28
62 -8z m-2695 -268 c74 -36 107 -179 56 -239 -21 -24 -30 -27 -79 -26 -71 2
-111 25 -137 78 -23 47 -26 119 -6 154 28 51 102 66 166 33z m1588 -18 c34
-24 52 -68 52 -129 0 -48 -4 -61 -28 -84 -51 -52 -162 -47 -203 9 -26 34 -35
111 -19 151 8 17 27 40 44 50 39 24 122 25 154 3z m-2361 -54 c21 -13 35 -31
42 -57 17 -60 13 -82 -18 -114 -24 -24 -38 -29 -76 -29 -38 0 -52 5 -75 28
-35 36 -54 100 -40 136 19 52 110 71 167 36z m3137 -63 c23 -30 15 -74 -19
-111 -38 -41 -95 -36 -147 13 -48 44 -54 84 -21 129 37 50 60 54 117 22 28
-16 59 -40 70 -53z m-4734 48 c35 -18 44 -44 29 -79 -26 -56 -111 -40 -117 21
-2 22 3 38 17 52 25 25 33 26 71 6z m3150 -31 c61 -57 66 -89 19 -128 -34 -29
-37 -29 -94 -16 -65 15 -91 64 -65 122 10 21 65 66 83 67 4 1 30 -20 57 -45z
m-4670 1 c20 -24 7 -49 -35 -69 -44 -20 -68 -13 -73 22 -7 46 78 84 108 47z
m2327 -1 c3 -8 -1 -22 -10 -31 -13 -14 -16 -13 -22 6 -11 35 19 59 32 25z
m4625 -1 c37 -33 13 -77 -39 -71 -32 3 -42 33 -23 67 13 25 37 27 62 4z
m-6172 -25 c0 -5 -7 -8 -15 -8 -15 0 -20 21 -8 33 7 7 23 -11 23 -25z m5866
-314 c42 -44 46 -94 11 -145 -25 -38 -81 -79 -107 -79 -25 0 -110 95 -110 122
0 39 35 92 76 115 57 33 90 30 130 -13z m-4657 11 c35 -17 41 -32 41 -97 0
-41 -5 -54 -29 -79 -24 -24 -38 -29 -76 -29 -52 0 -99 21 -115 49 -5 11 -10
42 -10 69 0 44 4 54 31 76 24 20 41 26 80 26 28 0 63 -7 78 -15z m3074 4 c45
-20 70 -87 47 -129 -20 -37 -126 -53 -167 -25 -40 28 -37 119 4 151 22 16 83
18 116 3z m-753 -14 c40 -21 46 -53 21 -104 -35 -69 -81 -76 -148 -25 -26 20
-33 32 -33 60 0 72 84 108 160 69z m-3933 -17 c37 -40 38 -65 4 -98 -47 -47
-101 -37 -120 23 -14 42 -7 63 28 82 38 20 65 18 88 -7z m2331 -13 c28 -44 28
-60 -3 -90 -31 -32 -46 -31 -84 1 -38 32 -40 66 -6 99 35 35 65 32 93 -10z
m-1509 -11 c51 -65 1 -138 -57 -84 -26 24 -29 72 -6 94 22 23 40 20 63 -10z
m4593 9 c33 -29 12 -103 -29 -103 -27 0 -63 32 -63 57 0 58 50 84 92 46z
m-2302 -22 c24 -45 -5 -91 -57 -91 -22 0 -53 33 -53 57 0 44 89 72 110 34z
m-1904 -277 c31 -23 64 -78 64 -107 0 -9 -15 -32 -34 -51 -28 -31 -40 -36 -77
-36 -66 0 -122 45 -135 108 -8 43 15 78 69 103 47 21 67 18 113 -17z m714 -74
c27 -27 26 -65 -2 -84 -30 -21 -44 -20 -68 4 -27 27 -26 65 2 84 30 21 44 20
68 -4z m-1546 -21 c20 -30 6 -63 -28 -67 -33 -4 -56 13 -56 42 0 47 57 63 84
25z m4660 -24 c-4 -8 -8 -15 -10 -15 -2 0 -4 7 -4 15 0 8 4 15 10 15 5 0 7 -7
4 -15z m784 -2 c-2 -10 -14 -19 -26 -21 -21 -3 -22 -1 -12 17 13 26 43 28 38
4z m-6198 3 c0 -11 -19 -15 -25 -6 -3 5 1 10 9 10 9 0 16 -2 16 -4z"/>
<path d="M43792 26670 c-531 -22 -843 -60 -1190 -145 -801 -198 -1669 -634
-2237 -1124 -637 -550 -1102 -1138 -1435 -1816 -317 -646 -494 -1254 -562
-1930 -21 -210 -18 -1026 5 -1235 121 -1105 560 -2126 1290 -3003 121 -146
379 -411 532 -547 385 -344 815 -631 1296 -864 605 -294 1174 -459 1799 -521
204 -20 1103 -31 1275 -16 527 47 1185 230 1738 482 271 124 650 337 864 485
176 123 670 532 693 574 5 10 10 36 10 57 0 37 -19 57 -697 735 l-698 697 -49
7 c-65 9 -90 -4 -212 -111 -460 -406 -945 -637 -1639 -780 -358 -74 -928 -70
-1319 10 -313 63 -759 232 -1036 393 -215 124 -494 340 -712 550 -513 495
-873 1172 -1002 1882 -42 232 -51 341 -50 620 0 285 13 432 60 670 131 664
469 1306 929 1765 359 358 755 627 1160 786 154 61 231 99 272 133 26 22 55
29 239 56 115 16 242 37 283 45 238 48 600 61 866 30 640 -74 1231 -291 1691
-622 45 -32 139 -105 208 -163 70 -58 143 -113 161 -123 49 -27 116 -24 168 6
42 26 1176 1157 1300 1298 75 85 89 123 62 166 -21 34 -45 56 -260 237 -407
342 -665 512 -1120 736 -646 319 -1282 504 -1940 564 -215 20 -496 26 -743 16z
m1302 -394 c-3 -9 -10 -16 -14 -16 -15 0 -20 32 -8 47 10 12 13 12 20 -1 4 -8
5 -21 2 -30z m-619 -122 c8 -9 22 -28 30 -43 14 -27 13 -28 -27 -51 l-41 -23
-24 27 c-28 33 -29 46 -2 80 24 30 41 33 64 10z m-1545 -12 c28 -22 30 -70 4
-89 -55 -40 -116 26 -73 80 24 32 39 33 69 9z m784 -13 c31 -37 32 -43 6 -69
-36 -36 -84 -20 -104 34 -5 14 1 26 21 42 37 31 46 30 77 -7z m1012 -205 c19
-5 21 -11 17 -47 -11 -88 -61 -133 -121 -108 -34 14 -62 63 -55 92 3 11 19 30
35 44 29 25 76 32 124 19z m798 -60 c8 -22 9 -21 -15 -27 -24 -7 -39 21 -18
34 20 12 26 11 33 -7z m-3770 -106 c15 -21 14 -24 -14 -53 -25 -24 -33 -28
-48 -19 -25 16 -26 37 -2 67 26 33 44 34 64 5z m1579 -5 c36 -34 7 -93 -47
-93 -62 0 -84 60 -40 105 19 19 58 13 87 -12z m-776 -7 c27 -24 27 -26 13 -52
-23 -42 -45 -52 -78 -34 -33 19 -41 63 -16 91 23 26 47 24 81 -5z m1476 -48
c-7 -13 -23 -9 -30 8 -3 9 0 20 8 25 14 8 31 -18 22 -33z m317 -153 c30 -15
50 -60 34 -74 -5 -4 -25 -17 -45 -29 l-35 -21 -36 24 c-50 34 -54 51 -19 86
33 33 58 36 101 14z m1579 -11 c22 -29 28 -83 11 -114 -13 -24 -72 -43 -110
-35 -16 4 -37 16 -45 28 -22 31 -19 89 6 121 17 22 28 26 69 26 41 0 52 -4 69
-26z m-4543 -152 c18 -12 32 -44 27 -63 -5 -19 -70 -50 -89 -42 -30 11 -37 68
-11 101 10 13 55 16 73 4z m1565 -23 c28 -28 22 -69 -13 -89 -25 -13 -31 -13
-55 0 -31 17 -43 70 -22 96 17 21 66 17 90 -7z m2483 -165 c9 -3 25 -22 37
-41 l21 -34 -28 -30 c-35 -37 -57 -37 -83 0 -27 38 -26 57 4 86 27 28 27 28
49 19z m825 -14 c40 -21 52 -117 20 -156 -15 -19 -89 -18 -116 1 -25 18 -47
83 -37 111 14 38 36 54 76 54 22 0 47 -4 57 -10z m771 -50 c0 -11 -6 -20 -13
-20 -19 0 -27 10 -20 26 8 21 33 17 33 -6z m-4473 -60 c43 -26 55 -52 54 -117
-1 -92 -50 -143 -139 -143 -49 0 -95 41 -113 100 -10 34 -9 44 12 87 42 84
118 115 186 73z m821 -60 c53 -33 40 -74 -39 -124 -32 -20 -70 -9 -94 28 -15
23 -15 27 0 59 27 57 77 71 133 37z m-2368 -22 c24 -26 26 -56 4 -86 -23 -34
-62 -26 -92 18 l-23 35 33 27 c40 33 51 34 78 6z m772 -5 c26 -23 23 -65 -7
-93 -30 -29 -49 -22 -79 30 l-19 32 29 24 c35 28 51 30 76 7z m-1532 -43 c0
-5 -5 -10 -11 -10 -5 0 -7 5 -4 10 3 6 8 10 11 10 2 0 4 -4 4 -10z m5654 -104
c42 -18 66 -51 66 -94 0 -102 -81 -157 -175 -118 -42 18 -63 50 -71 107 -5 39
-3 49 20 76 36 43 99 54 160 29z m-809 -76 c37 -41 -11 -104 -61 -81 -32 14
-33 64 -2 85 29 21 41 20 63 -4z m1526 10 c29 -16 27 -78 -3 -89 -54 -20 -90
38 -51 81 19 21 27 22 54 8z m-3691 -175 c10 -12 -12 -110 -30 -128 -12 -13
-60 56 -60 86 0 53 58 80 90 42z m-3084 -20 c15 -23 15 -27 0 -50 -30 -45 -86
-28 -86 27 0 49 59 65 86 23z m1524 10 c34 -17 40 -54 14 -75 -21 -18 -61 -3
-87 32 -17 22 -18 30 -7 43 16 19 43 19 80 0z m4885 -235 c0 -22 -29 -18 -33
3 -3 14 1 18 15 15 10 -2 18 -10 18 -18z m-6000 -171 c8 -25 -22 -72 -49 -77
-9 -2 -28 4 -41 12 -32 21 -32 60 0 92 23 23 26 24 54 9 16 -8 33 -24 36 -36z
m-425 -337 c32 -26 21 -67 -25 -89 -31 -15 -36 -15 -60 1 -22 14 -26 23 -20
44 7 31 39 62 65 62 10 0 28 -8 40 -18z m787 -34 c39 -38 40 -44 11 -75 -26
-27 -59 -30 -80 -5 -30 34 -30 54 -1 84 15 15 29 28 32 28 3 0 20 -14 38 -32z
m763 2 c0 -30 0 -30 -25 -14 -35 23 -32 44 7 44 13 0 18 -8 18 -30z m-1141
-376 c43 -55 15 -114 -54 -114 -36 0 -48 7 -64 38 -17 32 -7 64 26 84 40 25
68 22 92 -8z m764 2 c23 -18 22 -61 -3 -86 -55 -55 -135 24 -83 82 19 21 60
23 86 4z m-435 -399 c49 -50 55 -83 16 -97 -44 -17 -74 -11 -105 19 -38 38
-37 63 4 95 17 14 34 26 37 26 3 0 25 -19 48 -43z m-339 -388 l23 -31 -28 -29
c-34 -36 -57 -37 -83 -3 -27 34 -26 40 4 69 32 33 57 31 84 -6z m-423 -356
c36 -23 44 -33 44 -59 0 -28 -22 -58 -57 -78 -17 -9 -67 18 -92 50 -26 34 -27
68 -1 94 27 27 55 25 106 -7z m418 -394 c36 -29 34 -62 -8 -94 -36 -27 -60
-25 -76 6 -16 29 -12 67 10 89 25 25 41 25 74 -1z m-771 -16 c46 -35 47 -65 6
-103 -40 -36 -71 -44 -114 -30 -24 8 -37 20 -44 42 -16 47 -13 66 14 93 34 35
90 34 138 -2z m378 -343 c28 -16 49 -63 49 -112 -1 -69 -35 -98 -118 -98 -39
0 -53 5 -72 25 -27 29 -39 110 -20 144 22 42 115 65 161 41z m-363 -422 c17
-17 15 -53 -3 -68 -19 -16 -59 -1 -74 29 -20 37 45 71 77 39z m765 -30 c8 -12
7 -24 -1 -42 -19 -43 -92 -31 -92 15 0 44 70 65 93 27z m-23 -743 c10 -13 10
-23 -5 -55 -19 -41 -32 -47 -66 -30 -24 13 -25 57 -2 82 20 22 56 23 73 3z
m-775 -810 c14 -13 25 -33 25 -44 0 -44 -89 -70 -110 -32 -15 29 -12 62 7 83
22 25 49 23 78 -7z m730 -15 c0 -8 -8 -16 -17 -18 -13 -2 -18 3 -18 18 0 15 5
20 18 18 9 -2 17 -10 17 -18z m41 -718 c5 -4 20 -23 32 -44 l22 -36 -33 -21
c-42 -26 -52 -26 -77 -1 -24 24 -25 52 -4 85 16 25 39 31 60 17z m-356 -417
c20 -21 22 -30 14 -52 -19 -56 -114 -52 -122 5 -9 64 63 95 108 47z m405 -360
c33 -32 35 -100 4 -139 -45 -57 -139 -76 -180 -35 -30 30 -23 118 12 155 47
51 124 60 164 19z m-422 -381 c11 -11 -5 -34 -24 -34 -12 0 -19 7 -19 20 0 19
28 28 43 14z m767 -99 c20 -25 4 -48 -28 -40 -40 10 -49 23 -26 40 24 19 39
19 54 0z m5663 -206 c5 -4 -10 -10 -33 -14 -50 -9 -75 7 -45 29 18 13 52 7 78
-15z m-1364 -93 c6 -7 16 -40 22 -72 14 -69 20 -77 76 -92 42 -13 107 -74 100
-95 -2 -6 -15 -20 -30 -31 -22 -16 -30 -18 -52 -8 -26 12 -75 99 -75 133 0 12
-19 21 -70 34 -45 11 -74 24 -80 35 -15 28 -12 71 7 92 19 22 85 25 102 4z
m-2325 -87 c11 -10 37 -131 30 -138 -2 -2 -37 18 -77 45 -84 57 -93 82 -37
101 35 12 66 9 84 -8z m-1576 -12 c3 -12 -3 -17 -22 -17 -28 0 -29 1 -20 25 8
20 38 15 42 -8z m2553 -77 c47 -13 69 -39 85 -101 11 -44 11 -55 -1 -79 -21
-40 -72 -74 -110 -73 -79 2 -125 57 -125 150 0 58 19 89 63 102 43 12 47 12
88 1z m-724 -55 c44 -78 21 -146 -62 -180 -67 -28 -123 21 -140 122 l-7 42 59
30 c81 43 120 39 150 -14z m3062 -9 c18 -19 22 -31 17 -53 -18 -72 -54 -89
-113 -53 -43 26 -44 61 -4 101 36 35 70 37 100 5z m755 8 c19 -19 19 -24 1
-48 -19 -25 -35 -12 -35 30 0 37 10 43 34 18z m-2324 -88 c0 -2 3 -11 6 -20 4
-12 0 -16 -15 -16 -14 0 -21 6 -21 20 0 11 7 20 15 20 8 0 15 -2 15 -4z
m-2162 -67 c46 -45 43 -59 -19 -97 -45 -27 -69 -28 -103 -1 -58 46 -56 81 8
110 57 26 77 24 114 -12z m-770 -11 c17 -17 15 -63 -2 -77 -46 -38 -111 25
-71 69 20 22 55 26 73 8z m3362 -186 c30 -31 46 -86 36 -127 -8 -30 -42 -54
-89 -62 -60 -9 -86 3 -107 50 -36 77 -23 124 41 151 53 23 87 20 119 -12z
m-1544 -7 c70 -49 1 -195 -92 -195 -46 0 -92 25 -100 54 -7 29 16 86 47 115
41 38 111 51 145 26z m761 -10 c31 -21 46 -61 39 -104 -14 -88 -127 -121 -192
-56 -20 20 -24 34 -24 80 0 47 4 60 26 82 23 23 31 25 76 20 28 -4 61 -13 75
-22z m2293 -24 c13 -24 2 -53 -18 -49 -21 4 -36 32 -29 52 9 22 34 20 47 -3z
m-4550 -206 c0 -8 -7 -15 -15 -15 -8 0 -15 7 -15 15 0 8 7 15 15 15 8 0 15 -7
15 -15z m2607 -133 c30 -19 54 -120 35 -149 -8 -13 -55 -33 -78 -33 -29 0 -74
56 -74 92 0 61 73 118 117 90z m818 -67 l25 -24 -18 -48 c-20 -55 -60 -85 -89
-67 -10 6 -27 27 -38 47 -17 31 -18 38 -6 61 13 24 63 55 89 56 7 0 24 -11 37
-25z m-1630 -39 c0 -22 -14 -29 -34 -17 -19 12 -6 43 16 39 10 -2 18 -12 18
-22z m-591 -172 c18 -7 10 -34 -10 -34 -8 0 -14 9 -14 20 0 22 1 23 24 14z
m1202 -319 c20 -31 11 -61 -27 -80 -21 -11 -34 -13 -48 -6 -37 20 -42 72 -9
95 33 23 65 20 84 -9z"/>
<path d="M62508 26670 c-81 -8 -119 -25 -139 -61 -6 -12 -15 -106 -20 -213
-10 -237 -10 -10628 0 -10749 9 -101 25 -131 87 -162 38 -20 62 -20 1609 -23
1894 -4 2274 4 2665 59 918 129 1935 593 2707 1235 692 575 1250 1347 1598
2214 166 414 311 956 360 1352 24 195 27 366 17 953 l-9 550 -38 180 c-134
647 -281 1095 -520 1580 -427 868 -1040 1565 -1895 2157 -492 341 -1135 632
-1727 782 -175 44 -371 84 -526 106 -312 45 -213 43 -2207 46 -1037 1 -1920
-2 -1962 -6z m3256 -306 c8 -3 33 -30 56 -60 l41 -55 -33 -42 c-40 -52 -47
-57 -79 -57 -41 0 -119 92 -119 141 0 49 81 93 134 73z m-1481 -52 c22 -19 23
-89 1 -120 -18 -26 -53 -28 -94 -7 -55 28 -52 90 7 129 36 25 55 24 86 -2z
m3265 -131 c13 -12 20 -25 16 -35 -13 -33 -54 -13 -54 25 0 34 7 35 38 10z
m-3683 -225 c19 -12 25 -25 25 -52 0 -71 -41 -103 -111 -84 -44 12 -59 33 -59
84 0 52 31 80 82 73 21 -3 50 -12 63 -21z m824 -2 c12 -15 21 -35 21 -45 0
-25 -33 -57 -66 -65 -23 -6 -32 -1 -56 25 -33 37 -35 64 -8 91 30 30 83 27
109 -6z m2290 -29 c33 -28 76 -93 68 -102 -10 -9 -83 8 -116 28 -41 24 -47 43
-27 74 21 32 37 31 75 0z m1014 -112 c34 -56 35 -59 21 -93 -18 -43 -39 -60
-76 -60 -36 0 -83 24 -92 45 -10 26 -7 84 5 108 17 33 51 57 81 57 22 0 33
-10 61 -57z m-815 -24 c42 -14 52 -50 25 -87 -22 -30 -42 -37 -79 -28 -28 7
-64 71 -64 115 0 29 0 29 43 20 23 -6 57 -14 75 -20z m-1524 0 c35 -27 35 -72
1 -95 -29 -19 -57 -12 -84 22 -16 21 -18 30 -10 52 18 47 50 55 93 21z m-2334
-13 c31 -13 31 -13 9 -19 -54 -15 -102 2 -68 24 18 11 21 11 59 -5z m167 -175
c51 -24 73 -63 73 -130 0 -88 -58 -131 -156 -116 -59 8 -101 50 -109 109 -19
125 73 190 192 137z m-747 -31 c40 -40 9 -109 -42 -97 -43 11 -62 32 -54 60
14 55 60 73 96 37z m1474 -43 c13 -35 -16 -69 -53 -65 -39 5 -41 46 -4 75 33
27 45 25 57 -10z m1830 -78 c37 -44 37 -119 0 -148 -34 -27 -84 -27 -118 0
-20 16 -26 29 -26 60 0 104 86 157 144 88z m1541 -44 c43 -42 31 -126 -20
-139 -67 -17 -145 36 -145 97 0 48 24 67 87 67 44 0 58 -5 78 -25z m-4468
-197 c34 -31 32 -100 -3 -135 -22 -22 -32 -25 -66 -20 -48 6 -88 33 -106 70
-11 22 -10 31 3 56 20 40 41 50 99 51 38 0 55 -5 73 -22z m802 -15 c45 -36 45
-143 1 -187 -16 -17 -33 -21 -81 -21 -54 0 -63 3 -85 28 -19 22 -24 39 -24 82
0 45 4 58 29 84 26 27 35 31 84 31 37 0 62 -6 76 -17z m1491 -28 c51 -26 52
-78 1 -108 -51 -30 -93 -21 -117 25 -18 34 -10 48 41 80 36 22 39 22 75 3z
m-810 -20 c12 -22 11 -27 -5 -45 -13 -14 -29 -20 -49 -18 -37 4 -45 28 -22 63
22 33 59 33 76 0z m2607 -71 c56 -35 63 -84 20 -131 -24 -27 -47 -29 -87 -8
-65 33 -77 90 -30 136 32 32 50 33 97 3z m1563 -4 c29 -29 27 -100 -3 -135
-31 -37 -97 -45 -126 -16 -25 25 -29 105 -7 134 28 37 106 47 136 17z m-2366
-81 c-8 -14 -34 -11 -34 4 0 8 3 17 7 20 9 9 34 -13 27 -24z m1564 -11 c16
-27 15 -28 -13 -58 -34 -36 -42 -37 -72 -8 -29 27 -29 45 -1 75 29 31 64 27
86 -9z m1522 17 c0 -8 -4 -15 -9 -15 -13 0 -22 16 -14 24 11 11 23 6 23 -9z
m-6014 -236 c41 -25 45 -60 10 -78 -34 -19 -57 -11 -83 28 -28 42 -28 45 0 59
31 15 36 15 73 -9z m2283 -18 c-15 -5 -22 6 -14 19 6 9 10 9 16 -1 5 -8 4 -15
-2 -18z m2603 -58 c37 -35 35 -55 -8 -103 -64 -70 -134 -49 -134 41 0 39 4 51
26 68 37 29 82 27 116 -6z m-752 -3 c28 -28 28 -117 -1 -154 -39 -49 -118 -26
-155 45 -16 33 -12 63 15 93 35 40 109 48 141 16z m1515 -65 c30 -29 31 -48 4
-86 -32 -46 -65 -35 -99 30 -12 23 -10 27 21 53 41 34 44 34 74 3z m754 7 c61
-30 60 -116 0 -166 -40 -34 -114 -36 -147 -6 -40 37 -23 151 25 179 28 16 84
13 122 -7z m-3634 -69 c273 -45 498 -103 763 -199 317 -115 587 -263 875 -482
468 -353 804 -752 1037 -1227 274 -559 393 -1086 377 -1659 -9 -310 -45 -542
-133 -851 -227 -800 -703 -1463 -1399 -1950 -418 -293 -832 -463 -1335 -549
-350 -60 -374 -61 -1142 -60 -677 2 -709 3 -745 21 -59 31 -71 66 -83 253 -8
115 -10 1137 -8 3360 3 3050 4 3197 21 3235 37 82 88 115 192 126 39 4 381 6
760 5 649 -2 698 -4 820 -23z m-3189 -257 c6 -25 -10 -66 -26 -66 -24 0 -61
26 -66 46 -7 28 1 43 30 54 27 10 54 -4 62 -34z m734 10 c-10 -10 -40 -1 -40
13 0 14 34 19 42 7 4 -6 3 -15 -2 -20z m5701 -46 c10 -6 26 -24 34 -40 15 -29
15 -32 -16 -78 -17 -26 -39 -53 -47 -59 -27 -22 -62 -15 -93 18 -31 33 -39 82
-19 119 22 41 98 62 141 40z m-6199 -22 c9 -7 23 -25 32 -39 16 -26 16 -27
-14 -53 -38 -32 -54 -33 -74 -4 -21 30 -20 50 5 82 23 30 29 31 51 14z m4666
-31 c3 -28 3 -28 -22 -12 -15 10 -23 22 -19 31 9 25 38 11 41 -19z m-5239
-271 c9 -11 8 -15 -5 -20 -20 -8 -39 7 -30 23 10 15 21 14 35 -3z m6435 -28
c24 -34 20 -102 -6 -133 -28 -33 -97 -38 -128 -10 -29 27 -28 105 3 132 43 40
107 45 131 11z m-5470 -40 c37 -52 1 -138 -57 -138 -29 0 -75 43 -84 78 -5 20
0 31 26 54 40 36 93 38 115 6z m6230 -30 c9 -12 16 -30 16 -40 0 -30 -41 -88
-61 -88 -28 0 -69 45 -69 75 0 33 42 75 74 75 14 0 31 -9 40 -22z m-364 -428
c0 -15 -51 -70 -64 -70 -21 0 -66 47 -66 69 0 11 14 28 32 39 l32 20 33 -25
c18 -14 33 -29 33 -33z m755 0 c15 -17 16 -24 7 -46 -10 -21 -18 -25 -50 -22
-33 3 -37 6 -40 33 -6 50 48 73 83 35z m-6808 -172 c18 -18 33 -38 33 -45 0
-7 -14 -28 -31 -48 -35 -39 -78 -47 -117 -19 -25 17 -28 47 -10 105 11 37 13
39 52 39 32 0 47 -7 73 -32z m6401 -184 c33 -23 31 -86 -4 -113 -40 -32 -71
-27 -90 12 -15 32 -15 36 5 75 24 46 49 54 89 26z m776 0 c33 -32 7 -94 -40
-94 -24 0 -54 33 -54 59 0 42 63 66 94 35z m-7563 -173 c23 -24 29 -38 29 -75
0 -36 -5 -48 -26 -65 -31 -25 -71 -27 -119 -7 -42 18 -60 52 -51 100 14 76
110 103 167 47z m751 9 c46 -13 68 -43 68 -93 0 -48 -21 -89 -54 -106 -36 -20
-111 -9 -142 20 -53 50 -17 171 54 182 15 2 29 5 32 5 3 1 22 -3 42 -8z m6413
-206 c9 -9 23 -27 32 -40 14 -22 14 -26 -1 -49 -10 -14 -29 -31 -43 -38 -23
-10 -28 -8 -54 21 -35 40 -37 65 -4 97 28 29 47 31 70 9z m-781 0 c28 -11 18
-67 -15 -84 -27 -15 -69 4 -69 31 0 43 42 69 84 53z m-5989 -173 c86 -40 126
-124 93 -196 -16 -35 -57 -55 -113 -55 -79 0 -144 51 -165 130 -14 53 5 91 62
119 52 26 71 26 123 2z m-837 -85 c3 -12 -1 -17 -10 -14 -7 3 -15 13 -16 22
-3 12 1 17 10 14 7 -3 15 -13 16 -22z m8074 -156 c35 -72 36 -113 2 -146 -21
-22 -31 -25 -62 -19 -80 15 -122 62 -122 137 0 59 39 89 110 85 44 -2 46 -3
72 -57z m-914 -31 c-2 -6 -8 -10 -13 -10 -5 0 -11 4 -13 10 -2 6 4 11 13 11 9
0 15 -5 13 -11z m529 -341 c21 -19 24 -29 20 -63 -8 -59 -47 -89 -106 -82 -61
7 -96 45 -87 95 6 38 30 70 61 82 28 10 83 -5 112 -32z m633 -48 c0 -11 -4
-20 -9 -20 -11 0 -22 26 -14 34 12 12 23 5 23 -14z m-1104 -308 c15 -9 44 -67
44 -86 0 -22 -40 -56 -66 -56 -26 0 -64 43 -64 72 0 29 19 58 43 68 28 11 30
11 43 2z m808 -27 c44 -26 79 -60 88 -85 15 -43 -48 -100 -110 -100 -75 0
-122 52 -122 134 0 39 4 47 28 60 39 22 68 19 116 -9z m-6864 -226 c15 -27 6
-49 -20 -49 -15 0 -20 7 -20 28 0 46 21 57 40 21z m6441 -129 c50 -27 66 -128
25 -155 -61 -40 -137 -38 -164 5 -19 31 -25 102 -10 121 31 37 105 52 149 29z
m-738 -51 c10 -17 2 -69 -11 -69 -4 0 -23 13 -42 28 -24 20 -32 34 -27 46 9
22 65 18 80 -5z m1511 -81 c11 -43 5 -48 -28 -23 -11 8 -16 21 -13 30 9 23 34
18 41 -7z m-8104 -229 c18 -26 21 -37 14 -58 -13 -35 -68 -41 -107 -11 -33 27
-34 44 -2 75 33 34 66 32 95 -6z m7762 -46 c21 -19 24 -78 6 -118 -21 -47 -71
-43 -130 13 -32 30 -35 48 -10 78 36 45 100 58 134 27z m-6867 -263 c0 -16 -6
-26 -18 -28 -19 -4 -32 20 -23 44 9 25 41 13 41 -16z m6475 -120 c43 -22 80
-68 80 -100 0 -46 -50 -110 -87 -110 -32 0 -98 35 -117 62 -32 45 -10 124 42
152 35 20 36 20 82 -4z m-7000 -15 c24 -12 30 -22 30 -48 0 -71 -58 -100 -114
-56 -31 25 -33 57 -5 93 23 30 47 33 89 11z m6224 -1 c9 -8 16 -24 16 -34 0
-22 -26 -50 -46 -50 -44 0 -78 56 -53 86 15 19 64 18 83 -2z m-6590 -360 c22
-70 16 -97 -31 -129 -50 -33 -68 -32 -109 9 -26 26 -34 42 -34 71 0 35 2 37
73 70 39 19 75 34 78 34 3 1 13 -24 23 -55z m748 -21 c37 -33 8 -83 -49 -83
-34 0 -37 5 -33 50 4 50 45 66 82 33z m6271 -13 c31 -18 37 -28 37 -55 0 -43
-25 -102 -49 -115 -50 -26 -155 8 -167 55 -14 55 17 119 66 138 25 10 73 0
113 -23z m713 12 c40 -31 39 -57 -3 -91 -47 -39 -59 -39 -83 2 -25 40 -25 39
6 76 29 35 49 38 80 13z m-7336 -287 c37 -23 52 -142 25 -195 -30 -58 -144
-62 -191 -7 -23 28 -26 38 -22 94 4 71 29 108 82 121 31 8 82 2 106 -13z
m6185 -37 c14 -6 28 -21 31 -34 11 -43 -36 -92 -76 -79 -54 17 -66 71 -24 104
31 24 35 25 69 9z m775 -99 c18 -34 19 -43 8 -57 -39 -50 -67 -53 -102 -11
-32 38 -33 53 -1 84 38 39 71 33 95 -16z m-7595 -155 c9 -4 25 -24 35 -45 l20
-38 -34 -20 c-43 -27 -52 -26 -72 4 -18 28 -13 64 12 89 18 18 17 18 39 10z
m997 -141 c38 -37 37 -76 -3 -114 -38 -36 -62 -37 -96 -3 -21 21 -24 32 -20
61 14 83 66 107 119 56z m5436 -90 c3 -35 0 -42 -18 -48 -24 -8 -45 7 -53 34
-5 22 1 34 28 49 30 17 40 9 43 -35z m770 31 c28 -20 29 -61 0 -91 -41 -44
-118 -19 -118 38 0 58 67 89 118 53z m-6813 -227 c34 -19 84 -84 85 -109 0
-11 -66 -37 -110 -44 -43 -7 -93 15 -111 47 -8 17 -7 31 6 65 26 69 61 80 130
41z m6475 -42 c38 -20 73 -78 73 -124 0 -49 -36 -117 -73 -136 -67 -34 -188
-7 -226 50 -32 50 5 171 64 208 34 21 123 22 162 2z m-6206 -67 c20 -29 20
-67 0 -96 -22 -32 -50 -45 -73 -33 -24 13 -94 111 -86 119 9 10 86 30 117 31
17 1 32 -7 42 -21z m689 -19 c13 -6 32 -26 41 -45 15 -33 15 -37 -4 -74 -22
-42 -60 -61 -89 -43 -27 17 -61 75 -61 104 0 18 9 35 26 48 30 24 52 26 87 10z
m-523 -315 c143 -32 167 -42 184 -79 15 -31 15 -37 1 -64 -22 -43 -49 -54
-111 -48 -63 7 -129 34 -195 83 -60 44 -71 75 -38 110 25 26 29 26 159 -2z
m-815 -9 c0 -14 -8 -21 -27 -23 -22 -3 -28 1 -28 16 0 25 10 33 35 30 12 -2
20 -10 20 -23z m7253 -29 c22 -21 26 -35 26 -80 0 -65 -25 -100 -85 -116 -82
-22 -139 25 -139 114 0 54 13 74 65 105 33 19 104 7 133 -23z m-843 -100 c29
-38 26 -58 -11 -75 -34 -15 -54 -14 -76 6 -29 26 -22 55 20 80 20 12 38 22 39
23 1 0 14 -15 28 -34z m-6068 -258 c28 -26 30 -64 3 -78 -16 -8 -28 -5 -60 16
-43 28 -51 56 -22 73 27 16 54 13 79 -11z m5674 -28 c44 -24 66 -131 33 -164
-23 -24 -95 -21 -129 6 -23 18 -26 27 -22 57 3 20 12 53 21 74 14 31 21 37 47
37 17 0 39 -5 50 -10z m-4653 -56 c30 -21 26 -61 -9 -86 -25 -19 -28 -19 -58
-4 -37 20 -42 55 -11 86 24 24 48 25 78 4z m5452 -14 c34 -34 17 -80 -29 -80
-47 0 -72 49 -41 80 25 25 45 25 70 0z m-6050 -220 c23 -12 34 -55 20 -80 -21
-39 -100 -14 -100 32 0 49 36 71 80 48z m4668 -70 c28 -17 33 -25 30 -52 -2
-23 -11 -37 -30 -47 -25 -14 -29 -14 -55 5 -36 27 -41 60 -12 90 27 29 26 29
67 4z m991 -104 c28 -29 25 -52 -11 -79 -32 -24 -71 -17 -93 17 -20 30 -12 49
28 69 43 21 50 21 76 -7z m-2359 -97 c0 -5 -7 -9 -15 -9 -15 0 -20 12 -9 23 8
8 24 -1 24 -14z m-3679 -171 c9 -7 23 -26 33 -42 18 -28 18 -29 -10 -52 -35
-28 -51 -30 -76 -7 -22 20 -23 70 -1 95 19 21 33 23 54 6z m1732 -89 c72 -33
47 -139 -32 -139 -41 0 -91 41 -91 76 0 25 54 74 82 74 9 0 28 -5 41 -11z
m1606 -41 c14 -25 14 -29 -5 -55 -12 -15 -30 -29 -41 -31 -26 -4 -73 35 -73
60 0 60 90 79 119 26z m3057 21 c3 -6 1 -15 -7 -19 -16 -10 -52 7 -44 21 8 13
42 11 51 -2z m-2300 -72 c13 -40 -61 -73 -96 -42 -30 28 -35 67 -10 87 21 17
23 17 61 -5 21 -12 42 -30 45 -40z m1574 23 c0 -25 -18 -36 -26 -16 -8 21 3
49 16 41 5 -3 10 -15 10 -25z m-6036 -179 c32 -33 29 -62 -8 -87 -33 -21 -73
-4 -90 38 -32 79 -33 78 21 78 41 0 54 -5 77 -29z m750 -57 c45 -44 -8 -114
-60 -79 -29 19 -31 48 -4 75 24 24 43 25 64 4z m786 -9 c0 -21 -30 -31 -40
-14 -11 17 -3 29 21 29 10 0 19 -7 19 -15z m3381 -24 c24 -24 29 -38 29 -76 0
-87 -47 -135 -132 -135 -24 0 -53 7 -65 15 -29 21 -46 77 -39 128 12 72 43 96
124 97 46 0 58 -4 83 -29z m716 -14 c19 -18 27 -39 31 -76 4 -47 2 -53 -29
-84 -41 -41 -103 -56 -150 -37 -81 34 -78 185 5 221 39 17 115 4 143 -24z
m-1548 -63 c12 -15 21 -33 21 -41 0 -23 -47 -63 -75 -63 -33 0 -65 33 -65 67
0 63 80 87 119 37z m-794 -9 c30 -29 31 -45 4 -79 -26 -33 -53 -33 -85 -1 -29
29 -26 58 8 88 27 23 44 22 73 -8z m-2950 -179 c40 -17 55 -42 55 -94 0 -74
-54 -112 -130 -92 -78 21 -106 108 -54 169 29 35 71 41 129 17z m1594 -42 c12
-15 21 -38 21 -52 0 -34 -65 -102 -98 -102 -60 0 -99 59 -81 123 12 45 31 56
91 57 39 0 50 -4 67 -26z m3378 -90 c21 -21 25 -32 20 -65 -7 -50 -29 -84 -70
-109 -63 -39 -126 -19 -147 45 -13 39 -7 68 22 105 28 36 57 49 106 50 33 0
49 -6 69 -26z m-1649 -56 c7 -7 12 -24 12 -38 0 -14 -5 -31 -12 -38 -17 -17
-78 -16 -78 2 0 8 -3 21 -6 29 -7 19 29 57 54 57 10 0 23 -5 30 -12z m790 -4
c35 -24 26 -64 -20 -89 -37 -20 -37 -20 -53 0 -28 37 -30 67 -5 87 27 22 49
23 78 2z m-1610 -50 c3 -23 -21 -49 -38 -39 -11 7 -14 48 -3 59 13 13 38 1 41
-20z m-2060 -230 c19 -21 23 -35 19 -62 -9 -54 -24 -65 -84 -60 -69 6 -93 27
-93 84 0 57 26 77 90 71 33 -4 51 -12 68 -33z m1527 -11 c21 -26 22 -30 9 -55
-18 -35 -56 -45 -89 -24 -34 22 -31 50 8 80 40 32 43 32 72 -1z m1719 -28 c17
-3 42 -15 58 -26 23 -17 28 -28 28 -61 0 -32 -7 -47 -34 -74 -38 -38 -62 -42
-112 -18 -48 23 -74 59 -74 104 0 49 48 94 90 85 8 -2 28 -6 44 -10z m-3832
-82 c21 -19 23 -51 6 -88 -11 -25 -41 -33 -64 -17 -14 9 -44 67 -44 85 0 37
68 51 102 20z m4631 -4 c13 -21 -15 -69 -41 -69 -40 0 -54 40 -25 72 20 22 51
20 66 -3z m-2913 -273 c0 -8 -7 -17 -16 -20 -23 -9 -24 -8 -24 14 0 13 7 20
20 20 11 0 20 -6 20 -14z m-1356 -107 c-8 -14 -24 -10 -24 6 0 9 6 12 15 9 8
-4 12 -10 9 -15z m3096 6 c0 -9 -6 -12 -16 -8 -13 5 -13 7 -2 14 17 11 18 11
18 -6z"/>
<path d="M10 9370 l0 -500 49760 0 49760 0 0 500 0 500 -49760 0 -49760 0 0
-500z"/>
<path d="M15125 5894 c-407 -34 -770 -159 -1110 -382 -265 -173 -470 -378
-649 -645 -366 -549 -478 -1246 -305 -1915 152 -591 602 -1156 1151 -1447 476
-251 1100 -321 1654 -186 507 124 961 436 1289 886 213 293 342 611 402 995
25 161 25 555 0 724 -66 441 -241 825 -529 1161 -376 439 -853 708 -1398 790
-104 15 -409 27 -505 19z m380 -829 c148 -22 266 -59 400 -125 139 -67 255
-149 374 -264 322 -311 476 -707 458 -1171 -9 -236 -51 -413 -142 -602 -77
-162 -162 -280 -295 -413 -299 -300 -637 -432 -1060 -417 -357 13 -635 122
-918 359 -196 164 -341 381 -420 628 -58 180 -67 251 -66 510 0 254 11 332 70
523 109 348 388 673 723 842 127 63 310 117 476 138 78 10 309 5 400 -8z"/>
<path d="M39010 5894 c-529 -47 -902 -180 -1267 -453 -343 -256 -630 -633
-780 -1026 -44 -115 -97 -319 -120 -465 -27 -176 -25 -559 5 -735 130 -757
565 -1370 1203 -1695 362 -184 708 -263 1159 -264 232 0 339 9 520 45 627 125
1126 510 1439 1109 169 324 239 602 248 983 l6 217 -1117 0 -1116 0 0 -395 0
-395 640 0 c352 0 640 -3 640 -7 0 -3 -16 -36 -37 -72 -205 -372 -479 -574
-876 -648 -130 -25 -484 -24 -614 0 -348 66 -629 218 -868 469 -243 255 -374
545 -406 898 -33 364 63 718 270 998 237 320 558 521 956 599 131 25 471 25
610 -1 346 -64 646 -224 939 -500 l69 -65 116 109 c64 60 197 190 296 289
l180 181 -80 81 c-413 420 -868 646 -1461 724 -115 15 -462 27 -554 19z"/>
<path d="M49675 5894 c-407 -34 -770 -159 -1110 -382 -265 -173 -470 -378
-649 -645 -366 -549 -478 -1246 -305 -1915 152 -591 602 -1156 1151 -1447 476
-251 1100 -321 1654 -186 507 124 961 436 1289 886 213 293 342 611 402 995
25 161 25 555 0 724 -66 441 -241 825 -529 1161 -376 439 -853 708 -1398 790
-104 15 -409 27 -505 19z m380 -829 c148 -22 266 -59 400 -125 139 -67 255
-149 374 -264 322 -311 476 -707 458 -1171 -9 -236 -51 -413 -142 -602 -77
-162 -162 -280 -295 -413 -299 -300 -637 -432 -1060 -417 -357 13 -635 122
-918 359 -196 164 -341 381 -420 628 -58 180 -67 251 -66 510 0 254 11 332 70
523 109 348 388 673 723 842 127 63 310 117 476 138 78 10 309 5 400 -8z"/>
<path d="M66268 5889 c-328 -40 -616 -201 -819 -457 -279 -350 -300 -813 -55
-1226 136 -230 412 -509 926 -936 380 -316 514 -447 585 -575 104 -184 79
-364 -68 -501 -161 -151 -405 -188 -615 -93 -168 75 -348 261 -473 487 -15 28
-29 42 -39 39 -13 -3 -677 -402 -690 -414 -13 -12 162 -297 250 -408 130 -163
315 -317 481 -400 400 -200 956 -204 1361 -11 292 139 529 408 622 704 79 251
77 575 -4 812 -45 129 -129 278 -224 395 -144 179 -222 252 -681 640 -671 567
-760 662 -773 821 -6 81 9 123 70 190 79 86 171 124 303 124 133 0 264 -52
396 -158 86 -69 123 -107 211 -218 l65 -81 307 274 c168 151 306 278 306 283
0 18 -212 241 -310 327 -300 261 -576 378 -924 388 -72 2 -165 0 -208 -6z"/>
<path d="M76870 5894 c-530 -47 -993 -229 -1385 -545 -457 -368 -738 -906
-796 -1523 -15 -160 -6 -501 16 -646 77 -500 273 -904 604 -1244 197 -201 357
-319 601 -440 340 -169 671 -240 1120 -240 714 0 1180 185 1755 695 61 53 122
110 137 126 l27 28 -286 298 -285 297 -86 -82 c-311 -294 -594 -453 -925 -520
-97 -20 -142 -23 -332 -22 -189 0 -235 3 -325 23 -648 139 -1079 585 -1175
1218 -23 147 -20 401 5 547 53 307 177 544 410 777 223 224 442 344 750 410
90 20 135 23 315 23 156 0 233 -4 300 -16 357 -67 678 -238 962 -511 l102 -98
290 277 c160 152 291 281 291 287 0 5 -48 59 -107 120 -405 411 -924 669
-1508 747 -85 11 -400 21 -475 14z"/>
<path d="M89193 5890 c-152 -17 -331 -69 -458 -132 -256 -128 -494 -367 -622
-623 -191 -382 -187 -890 10 -1281 66 -131 157 -251 276 -367 236 -228 472
-336 802 -369 91 -9 119 -15 115 -25 -3 -7 -176 -345 -386 -750 l-380 -738
358 -176 c196 -97 358 -175 358 -175 9 7 1246 2441 1295 2547 142 307 182 468
183 724 0 142 -3 187 -23 275 -60 273 -180 487 -391 700 -255 258 -551 383
-929 395 -75 2 -169 0 -208 -5z m302 -795 c182 -48 340 -201 401 -390 21 -65
27 -101 28 -190 2 -192 -47 -318 -173 -445 -111 -112 -225 -160 -381 -160
-222 1 -413 117 -512 315 -72 142 -83 350 -26 503 65 176 228 326 401 368 73
17 192 17 262 -1z"/>
<path d="M92643 5890 c-152 -17 -331 -69 -458 -132 -256 -128 -494 -367 -622
-623 -191 -382 -187 -890 10 -1281 66 -131 157 -251 276 -367 236 -228 472
-336 802 -369 91 -9 119 -15 115 -25 -3 -7 -176 -345 -386 -750 l-380 -738
358 -176 c196 -97 358 -175 358 -175 9 7 1246 2441 1295 2547 142 307 182 468
183 724 0 142 -3 187 -23 275 -60 273 -180 487 -391 700 -255 258 -551 383
-929 395 -75 2 -169 0 -208 -5z m302 -795 c182 -48 340 -201 401 -390 21 -65
27 -101 28 -190 2 -192 -47 -318 -173 -445 -111 -112 -225 -160 -381 -160
-222 1 -413 117 -512 315 -72 142 -83 350 -26 503 65 176 228 326 401 368 73
17 192 17 262 -1z"/>
<path d="M980 3575 l0 -2215 1210 0 1210 0 0 410 0 410 -795 0 -795 0 0 585 0
585 795 0 795 0 0 410 0 410 -795 0 -795 0 0 400 0 400 795 0 795 0 0 410 0
410 -1210 0 -1210 0 0 -2215z"/>
<path d="M4615 5778 c-2 -7 -173 -994 -380 -2193 -207 -1199 -379 -2190 -382
-2202 l-5 -23 410 0 410 0 6 27 c3 16 112 640 241 1388 130 748 237 1365 239
1370 2 6 6 3 10 -5 3 -8 212 -636 464 -1395 l458 -1380 371 -3 371 -2 35 102
c19 57 229 679 466 1383 478 1420 442 1314 447 1300 4 -9 474 -2769 474 -2780
0 -3 182 -5 405 -5 223 0 405 2 405 5 0 2 -166 994 -370 2204 -203 1210 -370
2204 -370 2210 0 8 -124 11 -408 11 l-408 0 -339 -1007 c-609 -1815 -698
-2074 -705 -2066 -4 4 -236 698 -516 1541 l-508 1532 -408 0 c-318 0 -410 -3
-413 -12z"/>
<path d="M9730 3576 l0 -2216 420 0 420 0 0 939 0 938 223 7 c485 15 665 45
884 147 364 168 605 481 668 869 22 137 20 379 -4 522 -78 453 -368 792 -783
912 -97 28 -283 60 -443 77 -63 6 -385 13 -747 16 l-638 5 0 -2216z m1435
1371 c161 -34 262 -96 323 -197 47 -80 57 -122 57 -250 0 -108 -2 -119 -32
-182 -40 -85 -97 -147 -173 -187 -100 -53 -163 -62 -482 -68 l-288 -5 0 457 0
458 263 -6 c173 -4 286 -11 332 -20z"/>
<path d="M18043 5778 c2 -7 228 -1004 503 -2216 l498 -2202 400 2 399 3 397
1415 c217 778 398 1422 401 1430 3 8 189 -630 414 -1418 l408 -1432 403 0
c222 0 404 1 404 3 0 1 224 997 498 2212 l498 2210 -410 3 c-225 1 -411 0
-413 -2 -3 -3 -538 -2376 -628 -2786 -7 -31 -9 -32 -16 -15 -5 11 -185 639
-399 1395 -215 756 -393 1383 -396 1393 -5 16 -31 17 -354 17 -323 0 -349 -1
-354 -17 -3 -10 -179 -641 -391 -1403 -213 -762 -390 -1388 -394 -1392 -5 -5
-281 1201 -629 2750 l-14 62 -415 0 c-328 0 -414 -3 -410 -12z"/>
<path d="M23940 3575 l0 -2215 1210 0 1210 0 0 410 0 410 -795 0 -795 0 0 585
0 585 795 0 795 0 0 410 0 410 -795 0 -795 0 0 400 0 400 795 0 795 0 0 410 0
410 -1210 0 -1210 0 0 -2215z"/>
<path d="M27190 3576 l0 -2216 425 0 425 0 0 940 0 940 39 0 39 0 498 -940
498 -940 458 0 458 0 -24 48 c-13 26 -247 467 -520 981 -273 513 -496 936
-496 940 0 3 42 24 93 45 400 168 639 451 718 851 22 109 19 476 -4 585 -53
245 -159 449 -317 610 -176 180 -370 273 -665 320 -230 37 -338 42 -982 47
l-643 5 0 -2216z m1360 1384 c127 -14 200 -35 270 -81 116 -75 179 -189 188
-339 10 -197 -61 -337 -206 -406 -107 -51 -211 -66 -499 -71 l-263 -5 0 456 0
456 208 0 c114 0 250 -5 302 -10z"/>
<path d="M30660 3575 l0 -2215 415 0 415 0 0 2215 0 2215 -415 0 -415 0 0
-2215z"/>
<path d="M32450 3575 l0 -2215 420 0 420 0 0 1452 c0 888 4 1448 9 1443 5 -6
432 -658 949 -1450 l940 -1440 406 -3 406 -2 0 2215 0 2215 -420 0 -420 0 -2
-1457 -3 -1457 -950 1457 -949 1457 -403 0 -403 0 0 -2215z"/>
<path d="M43653 5708 c25 -46 317 -610 651 -1254 l606 -1171 0 -962 0 -961
425 0 425 0 0 960 0 960 645 1251 c355 687 645 1252 645 1255 0 2 -199 4 -443
4 l-443 0 -410 -794 c-225 -437 -412 -791 -416 -788 -3 4 -190 361 -414 795
l-408 787 -454 0 -453 0 44 -82z"/>
<path d="M52913 4243 c4 -1600 4 -1599 47 -1853 66 -398 235 -665 558 -881
229 -153 447 -226 754 -251 378 -30 748 54 1006 231 271 185 489 487 562 778
54 212 53 204 57 1926 l4 1597 -421 0 -420 0 0 -1482 c0 -915 -4 -1527 -10
-1597 -22 -246 -59 -344 -174 -457 -126 -124 -287 -184 -488 -184 -186 1 -346
60 -455 169 -106 106 -153 229 -172 448 -7 75 -11 669 -11 1611 l0 1492 -420
0 -421 0 4 -1547z"/>
<path d="M56450 5375 l0 -415 395 0 395 0 0 -1800 0 -1800 425 0 425 0 0 1800
0 1800 405 0 405 0 0 415 0 415 -1225 0 -1225 0 0 -415z"/>
<path d="M59470 3575 l0 -2215 430 0 430 0 0 970 0 970 740 0 740 0 0 -970 0
-970 425 0 425 0 0 2215 0 2215 -425 0 -425 0 0 -835 0 -835 -740 0 -740 0 0
835 0 835 -430 0 -430 0 0 -2215z"/>
<path d="M68550 3575 l0 -2215 415 0 415 0 0 2215 0 2215 -415 0 -415 0 0
-2215z"/>
<path d="M70340 3575 l0 -2215 420 0 420 0 0 1452 c0 888 4 1448 9 1443 5 -6
432 -658 949 -1450 l940 -1440 406 -3 406 -2 0 2215 0 2215 -420 0 -420 0 -2
-1457 -3 -1457 -950 1457 -949 1457 -403 0 -403 0 0 -2215z"/>
<path d="M79720 3575 l0 -2215 1210 0 1210 0 0 410 0 410 -795 0 -795 0 0 585
0 585 795 0 795 0 0 410 0 410 -795 0 -795 0 0 400 0 400 795 0 795 0 0 410 0
410 -1210 0 -1210 0 0 -2215z"/>
<path d="M84913 5402 l-241 -387 454 -3 454 -2 0 -1825 0 -1825 420 0 420 0 0
2215 0 2215 -632 0 -633 0 -242 -388z"/>
<path d="M95537 5768 c-3 -13 -123 -565 -268 -1227 -178 -817 -258 -1205 -251
-1210 6 -4 160 -40 342 -80 l330 -73 63 58 c293 274 643 287 898 34 133 -132
199 -304 199 -515 0 -225 -75 -405 -226 -543 -205 -188 -503 -225 -764 -95
-94 47 -226 176 -284 276 l-39 67 -439 0 -440 0 7 -37 c12 -68 76 -246 120
-339 96 -200 265 -405 445 -540 384 -286 946 -371 1421 -214 193 64 358 160
509 296 257 231 411 493 482 817 20 90 22 131 22 342 0 261 -11 342 -70 521
-119 357 -403 672 -737 816 -242 105 -555 142 -789 93 -39 -9 -73 -14 -75 -12
-2 3 36 184 85 403 l89 399 721 3 722 2 0 390 0 390 -1034 0 -1034 0 -5 -22z"/>
</g>
</svg>
